<svg height="512" viewBox="0 0 60 60" width="512" xmlns="http://www.w3.org/2000/svg"><g id="Page-1" fill="none" fill-rule="evenodd"><g id="086---Index-Fund" transform="translate(-1)"><path id="Path" d="m60 43v3.82c.0452102 1.152631-.8477494 2.1259569-2 2.18h-54c-1.15225064-.0540431-2.04521019-1.027369-2-2.18v-3.82z" fill="#9e9e9e"/><path id="Path" d="m57 43v3.82c.0452102 1.152631-.8477494 2.1259569-2 2.18h3c1.1522506-.0540431 2.0452102-1.027369 2-2.18v-3.82z" fill="#707070"/><path id="Path" d="m60 3.18v39.82h-58v-39.82c-.04521019-1.152631.84774936-2.12595691 2-2.18h54c1.1522506.05404309 2.0452102 1.027369 2 2.18z" fill="#00bcd4"/><path id="Path" d="m58 1h-3c1.1522506.05404309 2.0452102 1.027369 2 2.18v39.82h3v-39.82c.0452102-1.152631-.8477494-2.12595691-2-2.18z" fill="#00838f"/><path id="Path" d="m42 55h-22l3-6h16z" fill="#707070"/><path id="Path" d="m48 57c-.0032948 1.1032019-.8967981 1.9967052-2 2h-30c-1.1011688-.0081672-1.9918328-.8988312-2-2 .0032948-1.1032019.8967981-1.9967052 2-2h30c1.1011688.0081672 1.9918328.8988312 2 2z" fill="#9e9e9e"/><path id="Path" d="m47.41 55.59c-.3704612-.3798589-.8794095-.5928231-1.41-.59l-3-.0000277c1.1011688.0081949 1.9918328.8988589 2 2.0000277-.0032948 1.1032019-.8967981 1.9967052-2 2h3c1.1032019-.0032948 1.9967052-.8967981 2-2 .0028231-.5305905-.2101411-1.0395388-.59-1.41z" fill="#707070"/><g fill="#000"><path id="Shape" d="m58 0h-54c-1.70524172.05441563-3.04599736 1.47651044-3 3.182v43.636c-.04599736 1.7054896 1.29475828 3.1275844 3 3.182h17.382l-2 4h-3.382c-1.6568542 0-3 1.3431458-3 3s1.3431458 3 3 3h30c1.6568542 0 3-1.3431458 3-3s-1.3431458-3-3-3h-3.382l-2-4h17.382c1.7052417-.0544156 3.0459974-1.4765104 3-3.182v-43.636c.0459974-1.70548956-1.2947583-3.12758437-3-3.182zm-54 2h54c.5966179.06161524 1.038076.58341866 1 1.182v38.818h-56v-38.818c-.03807599-.59858134.40338206-1.12038476 1-1.182zm43 55c0 .5522847-.4477153 1-1 1h-30c-.5522847 0-1-.4477153-1-1s.4477153-1 1-1h30c.5522847 0 1 .4477153 1 1zm-6.618-3h-18.764l2-4h14.764zm17.618-6h-54c-.59661794-.0616152-1.03807599-.5834187-1-1.182v-2.818h56v2.818c.038076.5985813-.4033821 1.1203848-1 1.182z" fill-rule="nonzero"/><path id="Path" d="m7 40h49c.5522847 0 1-.4477153 1-1s-.4477153-1-1-1h-49v-33c0-.55228475-.44771525-1-1-1s-1 .44771525-1 1v33c0 1.1045695.8954305 2 2 2z"/><path id="Path" d="m31 27v3.764l-2.1-4.211c-.2040519-.4214702-.6732513-.6449027-1.129074-.5376645-.4558226.1072383-.7761896.5164267-.770926.9846645v8c0 .5522847.4477153 1 1 1s1-.4477153 1-1v-3.764l2.105 4.211c.1694246.3390516.515974.5531766.895.553.0770556-.0002457.1538506-.0089648.229-.026.4519434-.1063203.7712663-.5097191.771-.974v-8c0-.5522847-.4477153-1-1-1s-1 .4477153-1 1z"/><path id="Path" d="m23 27v8c0 .5522847.4477153 1 1 1s1-.4477153 1-1v-8c0-.5522847-.4477153-1-1-1s-1 .4477153-1 1z"/><path id="Path" d="m47 28c.5522847 0 1-.4477153 1-1s-.4477153-1-1-1h-3c-.5522847 0-1 .4477153-1 1v8c0 .5522847.4477153 1 1 1h3c.5522847 0 1-.4477153 1-1s-.4477153-1-1-1h-2v-2h1c.5522847 0 1-.4477153 1-1s-.4477153-1-1-1h-1v-2z"/><path id="Shape" d="m36 26c-.5522847 0-1 .4477153-1 1v8c0 .5522847.4477153 1 1 1h2c1.6568542 0 3-1.3431458 3-3v-4c0-1.6568542-1.3431458-3-3-3zm3 3v4c0 .5522847-.4477153 1-1 1h-1v-6h1c.5522847 0 1 .4477153 1 1z" fill-rule="nonzero"/><path id="Path" d="m55.447 26.105c-.2373497-.1186659-.5121326-.1381283-.7638386-.0541012-.251706.084027-.4596935.2646527-.5781614.5021012l-1.105 2.211-1.1-2.211c-.2468713-.4942948-.8477051-.6948713-1.342-.448-.4942948.2468713-.6948713.8477052-.448 1.342l1.772 3.553-1.777 3.553c-.2468713.4942949-.0462949 1.0951287.448 1.342s1.0951287.0462949 1.342-.448l1.105-2.211 1.1 2.211c.2468713.4942949.8477051.6948713 1.342.448s.6948713-.8477051.448-1.342l-1.772-3.553 1.782-3.553c.118312-.2379623.1370383-.5132312.0520441-.7650242s-.2667178-.4593989-.5050441-.5769758z"/><path id="Path" d="m41.287 17.148-2.265-1.811c-1.1937805-.9545047-2.9143256-.858895-3.995.222l-5.654 5.654c-.3183707.3172333-.8092693.3830955-1.2.161l-4.141-2.366c-1.3123915-.751405-2.9788823-.4085056-3.888.8l-10.944 14.592c-.33137085.4418278-.2418278 1.0686292.2 1.4s1.0686292.2418278 1.4-.2l10.94-14.587c.3027432-.4058482.8610551-.5213758 1.3-.269l4.141 2.366c1.1748258.6684391 2.6512873.4708412 3.609-.483l5.654-5.654c.3601344-.3599063.9331889-.3917666 1.331-.074l2.265 1.811c1.1519565.9314658 2.8131449.8756669 3.9-.131l10.736-9.842c.4070338-.3733445.4343445-1.00596613.061-1.41299998s-1.0059661-.43434449-1.413-.06100002l-10.737 9.842c-.3619857.3364942-.9165695.3548381-1.3.043z"/><path id="Path" d="m18 30c-.5522847 0-1 .4477153-1 1s.4477153 1 1 1h2c.5522847 0 1-.4477153 1-1s-.4477153-1-1-1z"/><path id="Path" d="m10 24h4c.5522847 0 1-.4477153 1-1s-.4477153-1-1-1h-4c-.55228475 0-1 .4477153-1 1s.44771525 1 1 1z"/><path id="Path" d="m10 16h20c.5522847 0 1-.4477153 1-1s-.4477153-1-1-1h-20c-.55228475 0-1 .4477153-1 1s.44771525 1 1 1z"/><path id="Path" d="m51 15c0 .5522847.4477153 1 1 1h3c.5522847 0 1-.4477153 1-1s-.4477153-1-1-1h-3c-.5522847 0-1 .4477153-1 1z"/><path id="Path" d="m10 8h37c.5522847 0 1-.44771525 1-1s-.4477153-1-1-1h-37c-.55228475 0-1 .44771525-1 1s.44771525 1 1 1z"/></g></g></g></svg>