<svg id="Capa_1" enable-background="new 0 0 453.54 453.54" height="512" viewBox="0 0 453.54 453.54" width="512" xmlns="http://www.w3.org/2000/svg"><g><g><path d="m226.77 198.606c-4.268 0-7.728-3.459-7.728-7.728v-167.182c0-4.268 3.46-7.727 7.728-7.727s7.728 3.459 7.728 7.727v167.183c0 4.268-3.46 7.727-7.728 7.727z" fill="#1e222f"/></g><g><g><g><path d="m129.917 267.367c-1.819 0-3.644-.638-5.113-1.937l-63.641-56.215-47.892 49.337c-2.973 3.062-7.866 3.135-10.927.163-3.062-2.973-3.135-7.865-.163-10.927l53.028-54.626c2.875-2.962 7.567-3.141 10.66-.409l69.166 61.096c3.199 2.826 3.501 7.709.676 10.907-1.527 1.727-3.656 2.611-5.794 2.611z" fill="#1e222f"/></g><g><path d="m7.726 356.106c-1.978 0-3.957-.755-5.466-2.264-3.017-3.019-3.015-7.912.003-10.929l55.421-55.389c2.385-2.382 6.037-2.944 9.03-1.39l73.135 38.051c3.786 1.97 5.258 6.636 3.289 10.422s-6.631 5.26-10.422 3.289l-68.111-35.437-51.415 51.387c-1.511 1.507-3.487 2.26-5.464 2.26z" fill="#1e222f"/></g><g><path d="m45.76 435.671c-1.419 0-2.855-.39-4.141-1.209-3.601-2.29-4.662-7.067-2.371-10.667l35.136-55.213c1.846-2.902 5.386-4.234 8.688-3.269l55.378 16.187c4.096 1.197 6.446 5.489 5.249 9.585-1.198 4.096-5.482 6.446-9.585 5.249l-49.807-14.559-32.021 50.316c-1.472 2.315-3.972 3.58-6.526 3.58z" fill="#1e222f"/></g></g><g><g><path d="m323.623 267.367c-2.138 0-4.267-.883-5.794-2.612-2.826-3.198-2.523-8.081.676-10.907l69.166-61.096c3.092-2.732 7.787-2.551 10.66.409l53.028 54.626c2.972 3.062 2.899 7.955-.163 10.927-3.062 2.973-7.956 2.899-10.927-.163l-47.892-49.337-63.641 56.215c-1.469 1.3-3.295 1.938-5.113 1.938z" fill="#1e222f"/></g><g><path d="m445.814 356.106c-1.977 0-3.953-.754-5.462-2.261l-51.416-51.387-68.111 35.437c-3.789 1.968-8.453.496-10.422-3.289-1.97-3.786-.497-8.452 3.289-10.422l73.135-38.051c2.992-1.555 6.645-.992 9.029 1.39l55.421 55.389c3.019 3.018 3.02 7.91.003 10.929-1.509 1.51-3.488 2.265-5.466 2.265z" fill="#1e222f"/></g><g><path d="m407.78 435.671c-2.554 0-5.054-1.265-6.526-3.58l-32.021-50.316-49.806 14.559c-4.098 1.194-8.388-1.154-9.585-5.249-1.198-4.097 1.153-8.388 5.249-9.585l55.378-16.188c3.297-.966 6.84.366 8.688 3.269l35.136 55.213c2.292 3.601 1.23 8.377-2.37 10.667-1.288.82-2.724 1.21-4.143 1.21z" fill="#1e222f"/></g></g></g><g><circle cx="226.77" cy="314.226" fill="#1e222f" r="123.345"/></g><g><path d="m139.551 227.006c-48.17 48.169-48.169 126.268 0 174.437 48.17 48.17 126.267 48.17 174.438 0-42.867 42.867-112.367 42.867-155.233.001-42.867-42.867-42.867-112.367 0-155.234 42.866-42.866 112.367-42.866 155.233 0 42.867 42.867 42.866 112.367 0 155.232 48.169-48.169 48.169-126.268 0-174.437-48.17-48.167-126.267-48.169-174.438.001z" fill="#151823"/></g><g><g><g><circle cx="189.882" cy="345.543" fill="#fff" r="23.655"/></g><g><circle cx="189.882" cy="348.379" fill="#1e222f" r="12.657"/></g></g><g><g><circle cx="263.658" cy="345.543" fill="#fff" r="23.655"/></g><g><circle cx="263.658" cy="348.379" fill="#1e222f" r="12.657"/></g></g></g></g></svg>